<svg xmlns="http://www.w3.org/2000/svg" version="1.1" xmlns:xlink="http://www.w3.org/1999/xlink" xmlns:svgjs="http://svgjs.dev/svgjs" width="1440" height="560" preserveAspectRatio="none" viewBox="0 0 1440 560"><g mask="url(&quot;#SvgjsMask1008&quot;)" fill="none"><path d="M1678.35 238.31C1577.5 238.04 1479.72 168.31 1281.08 168.31 1082.45 168.31 1091.35 240.93 883.82 238.31 676.28 235.69 611.39-54.73 486.55-72.45" stroke="rgba(144, 150, 156, 1)" stroke-width="2"></path><path d="M1597.12 256.77C1442.97 258.07 1310.99 416.95 1000.75 413.57 690.51 410.19 596.31-54.53 404.38-86.05" stroke="rgba(144, 150, 156, 1)" stroke-width="2"></path><path d="M1524.09 394.53C1381.48 391.21 1222.8 210.69 990.3 192.93 757.8 175.17 816.65-60.48 723.41-83.87" stroke="rgba(144, 150, 156, 1)" stroke-width="2"></path><path d="M1685.65 357.41C1539.84 358.44 1355.21 508.1 1119.45 497.41 883.69 486.72 964.68 32.42 836.35-54.71" stroke="rgba(144, 150, 156, 1)" stroke-width="2"></path><path d="M1714.71 525.46C1573.54 524.9 1469.36 427.97 1161.25 413.46 853.13 398.95 781.72 5.15 607.78-19.54" stroke="rgba(144, 150, 156, 1)" stroke-width="2"></path></g><defs><mask id="SvgjsMask1008"><rect width="1440" height="560" fill="#ffffff"></rect></mask></defs></svg>